<svg xmlns="http://www.w3.org/2000/svg" xmlns:xlink="http://www.w3.org/1999/xlink" viewBox="0 0 312.1 290.11"><defs><style>.cls-1{fill:url(#linear-gradient);}.cls-2{fill:url(#linear-gradient-2);}.cls-3{fill:url(#linear-gradient-3);}</style><linearGradient id="linear-gradient" x1="150.56" y1="43.9" x2="161.68" y2="235.46" gradientUnits="userSpaceOnUse"><stop offset="0" stop-color="#26bad6"/><stop offset="0.06" stop-color="#2ebcd7"/><stop offset="0.16" stop-color="#43c3db"/><stop offset="0.28" stop-color="#65cee2"/><stop offset="0.42" stop-color="#95ddeb"/><stop offset="0.57" stop-color="#d2f1f6"/><stop offset="0.67" stop-color="#fff"/><stop offset="1" stop-color="#fff"/></linearGradient><linearGradient id="linear-gradient-2" x1="68.39" y1="93.27" x2="249.24" y2="197.68" gradientUnits="userSpaceOnUse"><stop offset="0" stop-color="#1e5ab7"/><stop offset="0.11" stop-color="#2b68c7"/><stop offset="0.32" stop-color="#4b8cf0"/><stop offset="0.39" stop-color="#5799ff"/><stop offset="0.45" stop-color="#5c9cff"/><stop offset="0.52" stop-color="#69a4ff"/><stop offset="0.59" stop-color="#80b2ff"/><stop offset="0.67" stop-color="#a0c5ff"/><stop offset="0.75" stop-color="#c9deff"/><stop offset="0.83" stop-color="#fbfcff"/><stop offset="0.83" stop-color="#fff"/><stop offset="0.86" stop-color="#fff"/><stop offset="1" stop-color="#fff"/></linearGradient><linearGradient id="linear-gradient-3" x1="108.85" y1="225.24" x2="201.01" y2="65.59" gradientUnits="userSpaceOnUse"><stop offset="0" stop-color="#00d18b"/><stop offset="0.09" stop-color="#06d28e"/><stop offset="0.21" stop-color="#16d595"/><stop offset="0.33" stop-color="#30daa1"/><stop offset="0.47" stop-color="#55e0b1"/><stop offset="0.61" stop-color="#84e9c7"/><stop offset="0.77" stop-color="#bdf3e1"/><stop offset="0.92" stop-color="#fff"/><stop offset="0.99" stop-color="#fff"/><stop offset="1" stop-color="#fff"/></linearGradient></defs><title>svg file</title><g id="Layer_2" data-name="Layer 2"><g id="Layer_1-2" data-name="Layer 1"><path class="cls-1" d="M166.25,227.7A270.38,270.38,0,0,1,118,229a214.91,214.91,0,0,1-47.66-8.28c-15.48-4.67-30.64-11.31-43.65-21.5A77.08,77.08,0,0,1,9.65,181c-.29-.44-.61-.87-.88-1.32L8,178.35l-1.57-2.76-1.36-2.87-.67-1.45-.56-1.5-1.12-3-.86-3.09-.43-1.55-.3-1.58-.59-3.16-.31-3.21-.16-1.61L0,151l0-3.23.24-3.23.12-1.61.25-1.6.51-3.2.75-3.14.39-1.57c.14-.52.32-1,.48-1.54A77.81,77.81,0,0,1,14.35,109.1,116.66,116.66,0,0,1,31.49,90.54a151.13,151.13,0,0,1,20.16-14.9,190.38,190.38,0,0,1,22-11.72A212,212,0,0,1,96.88,55c7.9-2.5,15.89-4.7,24-6.41s16.27-3,24.47-4,16.48-1.43,24.75-1.62a241.86,241.86,0,0,1,24.81.83,207,207,0,0,1,24.63,3.46,188.67,188.67,0,0,1,24.1,6.45,149.06,149.06,0,0,1,23,10,116.16,116.16,0,0,1,20.89,14.22A77.79,77.79,0,0,1,304,97.42c.27.47.56.92.81,1.39l.73,1.45,1.44,2.89,1.23,3,.6,1.5.48,1.55,1,3.09.7,3.16.34,1.58.21,1.61.42,3.2.14,3.22.06,1.61-.06,1.6-.15,3.21-.41,3.18-.21,1.58-.33,1.56-.68,3.12-.91,3-.46,1.51c-.16.5-.37,1-.56,1.48a76.72,76.72,0,0,1-12.49,21.5c-10.39,12.86-23.67,22.76-37.7,30.79A215,215,0,0,1,213.57,218,270.24,270.24,0,0,1,166.25,227.7Zm0,0q12-1.45,23.84-3.9a240,240,0,0,0,23.33-6.23,202.84,202.84,0,0,0,22.5-8.67,181.33,181.33,0,0,0,21.23-11.32,142.55,142.55,0,0,0,19.25-14.25,108.63,108.63,0,0,0,16.07-17.44A70.46,70.46,0,0,0,303,145.15c.14-.46.31-.91.43-1.37l.33-1.4.66-2.79.44-2.83.22-1.41.1-1.42.2-2.83,0-2.84,0-1.41-.14-1.41-.28-2.81-.54-2.76-.26-1.38-.38-1.36-.76-2.7-1-2.63-.49-1.31-.6-1.27-1.21-2.53-1.4-2.44-.7-1.21c-.25-.4-.53-.78-.79-1.17a70.49,70.49,0,0,0-15.52-16.42C269.2,76,254.78,69.69,239.93,65.23a208.52,208.52,0,0,0-46.05-8c-7.81-.51-15.65-.64-23.48-.44s-15.67.79-23.47,1.65a264.66,264.66,0,0,0-46,9.39A207.47,207.47,0,0,0,57.83,86c-13.48,7.68-26.09,17.13-35.72,29a70.19,70.19,0,0,0-11.43,19.5c-.17.44-.36.88-.51,1.32l-.41,1.35-.82,2.69-.6,2.74L8,144l-.18,1.39-.38,2.79L7.35,151l-.07,1.4.06,1.41.1,2.82.36,2.8L8,160.8l.29,1.38.6,2.77.84,2.72.42,1.37.53,1.32L11.72,173,13,175.59l.64,1.29c.22.42.49.83.73,1.24a70.32,70.32,0,0,0,15,17.83,108.84,108.84,0,0,0,19.6,13.37,142.76,142.76,0,0,0,22,9.54,183.9,183.9,0,0,0,23.24,6.24A202.05,202.05,0,0,0,118,228.46a239.88,239.88,0,0,0,24.13.82Q154.22,229,166.25,227.7Z"/><path class="cls-2" d="M229.72,217.58c-3.53,5.4-7.36,10.62-11.37,15.71s-8.41,9.88-12.95,14.54A163.12,163.12,0,0,1,190.89,261a158.26,158.26,0,0,1-16,11.46,122.76,122.76,0,0,1-36.69,15.41A86.58,86.58,0,0,1,118,290.11a73.54,73.54,0,0,1-20.5-3,71.27,71.27,0,0,1-19-8.87,72.85,72.85,0,0,1-15.58-14A82,82,0,0,1,51.74,246.7a107.66,107.66,0,0,1-7-19.33c-.88-3.3-1.53-6.63-2.16-10l-.73-5c-.26-1.67-.37-3.36-.55-5a151.22,151.22,0,0,1-.56-20.18,173,173,0,0,1,1.92-20l.36-2.48.45-2.47c.31-1.64.59-3.28.92-4.92.73-3.25,1.38-6.52,2.26-9.73a228.74,228.74,0,0,1,33.07-72c.91-1.39,1.88-2.73,2.86-4.06l2.93-4,3.06-3.92,1.53-2,1.6-1.91,3.19-3.81,3.32-3.71,1.67-1.84,1.73-1.79L105.09,45c4.75-4.64,9.61-9.17,14.8-13.34,1.26-1.08,2.62-2,3.93-3.07s2.63-2,4-3l4.08-2.88L136.09,20A134.51,134.51,0,0,1,172.52,3.49c12.91-3.57,26.76-4.66,40-2.05a69.33,69.33,0,0,1,19,6.76,64.83,64.83,0,0,1,8.5,5.33,67.16,67.16,0,0,1,7.51,6.57,72.6,72.6,0,0,1,11.72,15.81c.82,1.42,1.5,2.9,2.23,4.35s1.37,3,1.95,4.47a86.38,86.38,0,0,1,3.14,9.18A91.55,91.55,0,0,0,257.48,37a70.4,70.4,0,0,0-12.57-14.08A63.37,63.37,0,0,0,211.46,8.22a74.53,74.53,0,0,0-18.34,0,89.9,89.9,0,0,0-18,4.08,124.9,124.9,0,0,0-17.06,7.21,150.15,150.15,0,0,0-15.93,9.63,184.18,184.18,0,0,0-28.23,24.42L110.78,57l-1.58,1.73-1.51,1.78-3,3.57-2.93,3.66-1.46,1.83-1.41,1.88-2.8,3.76-2.68,3.84c-.9,1.28-1.79,2.57-2.63,3.89a231.36,231.36,0,0,0-18.08,32.83l-1.9,4.28c-.62,1.43-1.18,2.89-1.78,4.33-1.22,2.88-2.24,5.83-3.33,8.75-2,5.89-3.93,11.83-5.43,17.87-.83,3-1.44,6-2.14,9.07-.32,1.52-.58,3-.87,4.57L56.78,167l-.35,2.3a168.66,168.66,0,0,0-1.88,18.44,139.82,139.82,0,0,0,.27,18.43c.15,1.52.22,3.05.44,4.56l.6,4.54.8,4.49c.23,1.51.65,3,1,4.45,2.8,11.76,7.55,23,14.86,32.31a61,61,0,0,0,28.27,20.2A65.62,65.62,0,0,0,118.26,280a84.81,84.81,0,0,0,18.16-1.1c12.12-2,23.94-6.51,35.05-12.39a172.92,172.92,0,0,0,31.3-21.5c4.85-4.14,9.52-8.53,14-13.11S225.54,222.5,229.72,217.58Z"/><path class="cls-3" d="M267.74,117.81a168.76,168.76,0,0,1,10.43,15.29,156.69,156.69,0,0,1,8.61,16.52A114,114,0,0,1,296.52,186a79.42,79.42,0,0,1-.74,19.27A66.82,66.82,0,0,1,289.85,224a63.54,63.54,0,0,1-27.66,28c-11.78,6.19-24.86,9.16-37.76,9.89a134,134,0,0,1-19.33-.31,172.36,172.36,0,0,1-19-2.86c-25-5.36-48.5-15.81-69.82-29.33A261.83,261.83,0,0,1,86,206.63a247.39,247.39,0,0,1-26.49-27.09c-4-4.92-7.9-9.9-11.45-15.16-1.85-2.57-3.52-5.28-5.24-7.94l-2.43-4.1-1.21-2.05L38,148.19a149.92,149.92,0,0,1-14.31-35.44c-.37-1.57-.81-3.11-1.12-4.69l-.92-4.74c-.47-3.2-.93-6.39-1.14-9.63a86.89,86.89,0,0,1,.64-19.46,69.14,69.14,0,0,1,5.57-18.79,61.12,61.12,0,0,1,11-16.18A62.66,62.66,0,0,1,53.05,27.52a71.44,71.44,0,0,1,17.74-6.8,95.29,95.29,0,0,1,18.56-2.49,117.74,117.74,0,0,1,18.51.88,131.32,131.32,0,0,0-18.32,1.23,93.67,93.67,0,0,0-17.66,4.1,72.42,72.42,0,0,0-16,7.74,56,56,0,0,0-13,11.64A57.3,57.3,0,0,0,30.28,75.38a90.69,90.69,0,0,0,4,34.44,128.59,128.59,0,0,0,6.22,16.52,158.85,158.85,0,0,0,8.2,15.74L49.85,144,51,145.88l2.39,3.76c1.71,2.44,3.29,5,5.09,7.32,3.44,4.86,7.24,9.46,11.09,14a247.84,247.84,0,0,0,54.2,46.51,225.28,225.28,0,0,0,31.5,16.86l2,.91,2.07.84,4.12,1.69,4.18,1.55,2.09.77,2.11.7,4.23,1.39,4.26,1.25c1.42.44,2.85.8,4.28,1.16s2.86.77,4.3,1.08a159.09,159.09,0,0,0,17.4,3,133.12,133.12,0,0,0,17.49.78,92,92,0,0,0,17.19-2,72.11,72.11,0,0,0,16.17-5.38,57.72,57.72,0,0,0,14-9.3c1-1,2-1.94,3-2.95l2.77-3.19a59.93,59.93,0,0,0,4.77-7,57.93,57.93,0,0,0,6.14-16,74.89,74.89,0,0,0,1.77-17.42,99.92,99.92,0,0,0-1.81-17.77,136.49,136.49,0,0,0-4.7-17.49,156.17,156.17,0,0,0-6.86-16.93C273.75,128.54,270.83,123.14,267.74,117.81Z"/></g></g></svg>